HIERARCHY
ROOT locator2
{
  OFFSET 53.6172 30.1899 0.816905
  CHANNELS 6 Xposition Yposition Zposition Zrotation Xrotation Yrotation
  JOINT koshi
  {
    OFFSET 0 0 0
    CHANNELS 6 Xposition Yposition Zposition Zrotation Xrotation Yrotation
    JOINT sippo01
    {
      OFFSET 0 42.8363 -0.548134
      CHANNELS 6 Xposition Yposition Zposition Zrotation Xrotation Yrotation
      JOINT sippo02
      {
        OFFSET 0 44.0461 -3.28882
        CHANNELS 6 Xposition Yposition Zposition Zrotation Xrotation Yrotation
        JOINT sippo03
        {
          OFFSET 0 34.1929 -2.46662
          CHANNELS 6 Xposition Yposition Zposition Zrotation Xrotation Yrotation
          JOINT sippo04
          {
            OFFSET 0 30.0959 -1.75404
            CHANNELS 6 Xposition Yposition Zposition Zrotation Xrotation Yrotation
            JOINT sippo05
            {
              OFFSET 0 28.3637 -1.75404
              CHANNELS 6 Xposition Yposition Zposition Zrotation Xrotation Yrotation
              JOINT sippo06
              {
                OFFSET 0 31.6071 -3.2043
                CHANNELS 6 Xposition Yposition Zposition Zrotation Xrotation Yrotation
                End Site
                {
                  OFFSET 0 0 0
                }
              }
            }
          }
        }
      }
    }
    JOINT R_momo
    {
      OFFSET -27.891 13.5892 3.92723
      CHANNELS 6 Xposition Yposition Zposition Zrotation Xrotation Yrotation
      JOINT R_hiza
      {
        OFFSET 0 28.01 1.8232
        CHANNELS 6 Xposition Yposition Zposition Zrotation Xrotation Yrotation
        JOINT R_ashi
        {
          OFFSET 0 24.3992 -2.49174
          CHANNELS 6 Xposition Yposition Zposition Zrotation Xrotation Yrotation
          End Site
          {
            OFFSET 0 0 0
          }
        }
      }
    }
    JOINT L_momo
    {
      OFFSET 27.891 13.5892 3.92714
      CHANNELS 6 Xposition Yposition Zposition Zrotation Xrotation Yrotation
      JOINT L_hiza
      {
        OFFSET 0 28.0098 1.82319
        CHANNELS 6 Xposition Yposition Zposition Zrotation Xrotation Yrotation
        JOINT L_ashi
        {
          OFFSET 0 24.3992 -2.49171
          CHANNELS 6 Xposition Yposition Zposition Zrotation Xrotation Yrotation
          End Site
          {
            OFFSET 0 0 0
          }
        }
      }
    }
  }
  JOINT hara
  {
    OFFSET 0 2.15392 0
    CHANNELS 6 Xposition Yposition Zposition Zrotation Xrotation Yrotation
    JOINT mune
    {
      OFFSET 0 62.0609 0.472494
      CHANNELS 6 Xposition Yposition Zposition Zrotation Xrotation Yrotation
      JOINT R_kata
      {
        OFFSET 22.6695 9.65301 -5.3622
        CHANNELS 6 Xposition Yposition Zposition Zrotation Xrotation Yrotation
        JOINT R_hiji
        {
          OFFSET 0 25.813 1.69098
          CHANNELS 6 Xposition Yposition Zposition Zrotation Xrotation Yrotation
          JOINT R_te
          {
            OFFSET 0 28.5636 -0.966307
            CHANNELS 6 Xposition Yposition Zposition Zrotation Xrotation Yrotation
            End Site
            {
              OFFSET 0 0 0
            }
          }
        }
      }
      JOINT L_kata
      {
        OFFSET -22.6695 9.65298 -5.3622
        CHANNELS 6 Xposition Yposition Zposition Zrotation Xrotation Yrotation
        JOINT L_hiji
        {
          OFFSET 0 25.813 1.69102
          CHANNELS 6 Xposition Yposition Zposition Zrotation Xrotation Yrotation
          JOINT L_te
          {
            OFFSET 0 28.5636 -0.966295
            CHANNELS 6 Xposition Yposition Zposition Zrotation Xrotation Yrotation
            End Site
            {
              OFFSET 0 0 0
            }
          }
        }
      }
      JOINT kubi
      {
        OFFSET 0 23.1438 -0.944988
        CHANNELS 6 Xposition Yposition Zposition Zrotation Xrotation Yrotation
        JOINT atama
        {
          OFFSET 0 20.8625 4.12737
          CHANNELS 6 Xposition Yposition Zposition Zrotation Xrotation Yrotation
          JOINT ago
          {
            OFFSET 0 7.552 -7.58201
            CHANNELS 6 Xposition Yposition Zposition Zrotation Xrotation Yrotation
            End Site
            {
              OFFSET 0 0 0
            }
          }
        }
      }
    }
  }
}
MOTION
Frames:	5
Frame Time:	0.0333333
-2.12302e-005 26.5758 0.000111156 -90 -3.50835e-015 -90 0 0 0 -174.666 3.09362 0.502526 -1.16229e-006 42.8363 -0.548138 2.96669 -15.9213 3.73738 -2.98023e-008 44.0461 -3.28882 5.40197 9.4068 -5.26514 2.86102e-006 34.1929 -2.46661 6.42628 1.07188 -1.69357 -3.8147e-006 30.0959 -1.75404 6.02473 9.41321 -0.736233 -1.14441e-005 28.3637 -1.75404 9.4628 -5.7957 5.77061 1.52588e-005 31.6072 -3.2043 5.23386 -6.13165 -5.40338 -27.891 13.5892 3.92723 117.516 -18.6596 -48.4408 -3.8147e-006 28.01 1.8232 12.001 -82.2903 -3.96247 -3.8147e-006 24.3992 -2.49174 -149.818 63.019 -167.615 27.891 13.5892 3.92714 -102.218 -21.3562 59.5626 0 28.0098 1.82319 -3.56655 -68.4981 9.57981 -1.14441e-005 24.3992 -2.49173 140.89 67.2594 166.77 6.07673e-007 2.15392 0 5.45549e-008 -0.411168 -5.45549e-008 1.75086e-005 62.0609 0.472492 -0 -7.59855e-017 -0 22.6695 9.65299 -5.3622 -148.417 2.82915 46.3721 -3.8147e-006 25.813 1.69098 179.965 -77.8843 179.751 0 28.5636 -0.966307 40.989 13.2167 -94.3989 -22.6695 9.65299 -5.3622 130.759 -5.35498 -52.4206 0 25.813 1.69101 -179.768 -75.312 -178.036 7.6294e-006 28.5636 -0.966304 -44.3048 34.5402 110.063 6.57604e-006 23.1438 -0.944992 5.12935e-007 -3.98446 -5.12935e-007 5.84789e-006 20.8625 4.12737 -0.0346776 -4.04987 -0.0951256 6.51926e-009 7.55202 -7.58201 -1.00461e-005 4.26553 7.45578e-007 
-0.889843 25.8774 -0.827502 -90 -3.50835e-015 -90 0 0 0 -174.855 2.93064 0.501976 -1.16229e-006 42.8363 -0.548138 2.82089 -15.4926 3.78299 -5.145e-008 44.0461 -3.28882 5.1501 9.53007 -5.04133 2.80368e-006 34.1929 -2.46661 6.10658 1.56894 -1.45595 -3.81581e-006 30.0959 -1.75404 5.98865 9.67221 -0.880822 -1.144e-005 28.3637 -1.75404 9.39673 -5.5176 5.72724 1.52824e-005 31.6072 -3.2043 5.21971 -5.62572 -5.71567 -27.891 13.5892 3.92723 118.347 -16.542 -48.1491 -3.89647e-006 28.01 1.8232 11.6611 -81.9192 -4.85553 -3.88225e-006 24.3992 -2.49174 -147.6 65.1114 -169.115 27.891 13.5892 3.92714 -104.628 -20.2949 58.7226 1.09789e-007 28.0098 1.82319 -4.76866 -73.0754 9.33992 -1.15614e-005 24.3992 -2.49173 143.488 65.3465 164.36 6.07673e-007 2.15392 -3.55271e-015 -0.000516359 -0.365278 -0.158316 -2.72815e-012 62.0609 0.472492 -9.70628e-020 -1.14485e-018 -7.45443e-017 22.6695 9.653 -5.3622 -145.929 3.07055 46.4357 -3.8147e-006 25.813 1.69098 179.992 -78.3892 -179.953 4.01215e-010 28.5636 -0.966307 40.8117 15.0277 -94.1456 -22.6695 9.65299 -5.3622 130.306 -4.75684 -52.434 1.42109e-014 25.813 1.69101 -179.786 -74.0509 -178.164 7.6293e-006 28.5636 -0.966304 -44.7399 36.5842 110.703 -4.66049e-012 23.1438 -0.944992 1.53909 -4.08049 2.29015 4.39648e-012 20.8625 4.12737 1.63921 -4.72973 2.19179 -5.35129e-008 7.55202 -7.58201 -1.098e-005 5.24501 1.0978e-005 
-1.35243 25.1927 -1.24652 -90 -3.50835e-015 -90 0 0 0 -175.047 2.76477 0.499673 -1.16229e-006 42.8363 -0.548138 2.67713 -15.0675 3.83039 -7.28958e-008 44.0461 -3.28882 4.89964 9.65245 -4.81793 2.74672e-006 34.1929 -2.46661 5.79392 2.05605 -1.21835 -3.8196e-006 30.0959 -1.75404 5.95279 9.93045 -1.0251 -1.1439e-005 28.3637 -1.75404 9.33162 -5.24222 5.68497 1.5302e-005 31.6072 -3.2043 5.20625 -5.12847 -6.02237 -27.891 13.5892 3.92723 118.777 -14.9193 -48.1201 -3.94857e-006 28.01 1.8232 12.3691 -82.2407 -4.68064 -3.89737e-006 24.3992 -2.49174 -146.593 66.1118 -169.793 27.891 13.5892 3.92714 -105.696 -19.0734 58.2479 1.70414e-007 28.0098 1.82319 -6.02515 -75.9076 9.04292 -1.1656e-005 24.3992 -2.49173 144.677 64.1129 163.456 6.07673e-007 2.15392 -7.10543e-015 -0.000909846 -0.317431 -0.322241 -3.63776e-012 62.0609 0.472492 -5.82377e-019 -3.23045e-017 2.48481e-016 22.6695 9.653 -5.3622 -144.598 3.92998 46.3087 -3.8147e-006 25.813 1.69098 -179.982 -78.1429 -179.667 8.28806e-010 28.5636 -0.966307 40.5338 16.2332 -93.3624 -22.6695 9.65299 -5.3622 129.925 -3.29873 -52.8571 2.84217e-014 25.813 1.69101 -179.801 -72.8142 -178.287 7.63004e-006 28.5636 -0.966304 -44.8391 38.0618 110.699 -5.00244e-012 23.1438 -0.944992 2.31507 -4.17411 3.41821 3.98526e-012 20.8625 4.12737 2.43398 -5.14649 3.33413 -8.24396e-008 7.55202 -7.58201 -1.00823e-005 6.20784 1.13352e-006 
-1.59765 24.5609 -1.54179 -90 -3.50835e-015 -90 0 0 0 -175.239 2.59916 0.496823 -1.16229e-006 42.8363 -0.548138 2.53489 -14.6446 3.87973 -9.42052e-008 44.0461 -3.28882 4.64679 9.77585 -4.59141 2.68958e-006 34.1929 -2.46661 5.47786 2.54932 -0.972086 -3.82499e-006 30.0959 -1.75404 5.91721 10.187 -1.1679 -1.14402e-005 28.3637 -1.75404 9.2674 -4.96932 5.6437 1.53187e-005 31.6072 -3.2043 5.1931 -4.62625 -6.33188 -27.891 13.5892 3.92723 119.07 -13.3964 -48.1735 -3.99258e-006 28.01 1.8232 13.147 -82.5648 -4.44057 -3.90722e-006 24.3992 -2.49174 -145.964 66.8109 -170.044 27.891 13.5892 3.92714 -106.463 -17.9752 57.9171 2.17558e-007 28.0098 1.82319 -7.61326 -78.2694 8.55552 -1.17347e-005 24.3992 -2.49173 145.392 63.1273 163.065 6.07673e-007 2.15392 -7.10543e-015 -0.0011546 -0.272245 -0.47898 -3.63798e-012 62.0609 0.472492 1.35888e-018 3.53324e-017 -9.93923e-017 22.6695 9.653 -5.3622 -143.361 5.17544 46.444 -3.8147e-006 25.813 1.69098 -179.956 -77.8892 -179.373 1.24626e-009 28.5636 -0.966307 40.137 16.9479 -92.1048 -22.6695 9.65299 -5.3622 129.497 -1.85253 -53.264 1.42109e-014 25.813 1.69101 -179.815 -71.5648 -178.409 7.63164e-006 28.5636 -0.966304 -44.9152 39.4833 110.604 -5.00222e-012 23.1438 -0.944992 3.09878 -4.26773 3.87777 3.98481e-012 20.8625 4.12737 3.29712 -5.14281 4.12467 -1.06878e-007 7.55202 -7.58201 -1.12054e-006 6.3803 1.00787e-005 
-1.84526 23.9273 -1.83996 -90 -3.50835e-015 -90 0 0 0 -175.427 2.43596 0.49227 -1.16229e-006 42.8363 -0.548138 2.39047 -14.2128 3.93231 -1.15915e-007 44.0461 -3.28882 4.38975 9.90109 -4.36019 2.63152e-006 34.1929 -2.46661 5.15816 3.04895 -0.717707 -3.83251e-006 30.0959 -1.75404 5.88102 10.4483 -1.3131 -1.14439e-005 28.3637 -1.75404 9.20158 -4.68831 5.60185 1.53322e-005 31.6072 -3.2043 5.18018 -4.11792 -6.6449 -27.891 13.5892 3.92723 119.285 -11.8713 -48.2433 -4.0347e-006 28.01 1.8232 13.3241 -82.5327 -4.70996 -3.92957e-006 24.3992 -2.49174 -145.285 67.5139 -170.865 27.891 13.5892 3.92714 -106.989 -16.7058 57.6631 2.58255e-007 28.0098 1.82319 -10.013 -80.6229 7.26419 -1.18435e-005 24.3992 -2.49173 146.054 62.1281 162.725 6.07673e-007 2.15392 -3.55271e-015 -0.00109454 -0.223178 -0.646018 -3.63798e-012 62.0609 0.472492 -1.16475e-018 -2.1968e-017 2.98177e-016 22.6695 9.653 -5.3622 -142.523 6.52688 46.8964 -3.8147e-006 25.813 1.69098 -179.928 -78.1344 -179.078 1.67952e-009 28.5636 -0.966307 39.7429 17.6757 -90.9863 -22.6695 9.65299 -5.3622 129.021 -0.419844 -53.6568 7.10543e-015 25.813 1.69101 -179.826 -70.2996 -178.53 7.63406e-006 28.5636 -0.966304 -44.9411 40.9682 110.454 -5.002e-012 23.1438 -0.944992 3.79671 -4.34163 4.33604 3.98481e-012 20.8625 4.12737 4.10171 -4.36398 4.67938 -1.27614e-007 7.55202 -7.58201 -1.1475e-006 6.53254 1.00817e-005 
